<svg viewBox="0 0 432 250" fill="none" xmlns="http://www.w3.org/2000/svg">
<rect width="432" height="250" fill="#AFE7FF"/>
<rect width="432" height="250" fill="url(#paint0_radial_11_31)"/>
<rect width="432" height="250" fill="url(#paint1_radial_11_31)"/>
<rect width="432" height="250" fill="url(#paint2_radial_11_31)"/>
<rect width="432" height="250" fill="url(#paint3_radial_11_31)"/>
<path d="M409 250C409 237.297 419.297 227 432 227" stroke="white" stroke-width="3"/>
<path d="M393 250C393 228.461 410.461 211 432 211" stroke="white" stroke-width="3"/>
<path d="M393 250C393 228.461 410.461 211 432 211" stroke="white" stroke-width="3"/>
<path d="M376 250C376 219.072 401.072 194 432 194" stroke="white" stroke-width="3"/>
<path d="M358 250C358 209.131 391.131 176 432 176" stroke="white" stroke-width="3"/>
<path d="M338 250C338 198.085 380.085 156 432 156" stroke="white" stroke-width="3"/>
<path d="M319 250C319 187.592 369.592 137 432 137" stroke="white" stroke-width="3"/>
<path d="M300 250C300 177.098 359.098 118 432 118" stroke="white" stroke-width="3"/>
<path d="M280 250C280 166.053 348.053 98 432 98" stroke="white" stroke-width="3"/>
<path d="M260 250C260 155.007 337.007 78 432 78" stroke="white" stroke-width="3"/>
<defs>
<radialGradient id="paint0_radial_11_31" cx="0" cy="0" r="1" gradientUnits="userSpaceOnUse" gradientTransform="translate(432 82.5) rotate(156.571) scale(130.782 146.13)">
<stop stop-color="#3ABAE2" stop-opacity="0.53"/>
<stop offset="0.833333" stop-color="#3ABAE2" stop-opacity="0"/>
</radialGradient>
<radialGradient id="paint1_radial_11_31" cx="0" cy="0" r="1" gradientUnits="userSpaceOnUse" gradientTransform="translate(341 -21.5) rotate(99.1132) scale(148.373 137.871)">
<stop stop-color="#35BDF8" stop-opacity="0.82"/>
<stop offset="0.864583" stop-color="#35BDF8" stop-opacity="0"/>
</radialGradient>
<radialGradient id="paint2_radial_11_31" cx="0" cy="0" r="1" gradientUnits="userSpaceOnUse" gradientTransform="translate(119.5 207) rotate(44.0546) scale(107.141 185.14)">
<stop stop-color="#DFF5FF"/>
<stop offset="1" stop-color="#DFF5FF" stop-opacity="0"/>
</radialGradient>
<radialGradient id="paint3_radial_11_31" cx="0" cy="0" r="1" gradientUnits="userSpaceOnUse" gradientTransform="translate(78 4.50001) rotate(49.1779) scale(140.735 243.19)">
<stop stop-color="#46DEFF"/>
<stop offset="1" stop-color="#46DEFF" stop-opacity="0"/>
</radialGradient>
</defs>
</svg>
