<svg width="74" height="30" viewBox="0 0 74 30" fill="none" xmlns="http://www.w3.org/2000/svg">
<path d="M2 13C0.895431 13 0 13.8954 0 15C0 16.1046 0.895431 17 2 17V13ZM72.9142 16.4142C73.6953 15.6332 73.6953 14.3668 72.9142 13.5858L60.1863 0.857864C59.4052 0.0768158 58.1389 0.0768158 57.3579 0.857864C56.5768 1.63891 56.5768 2.90524 57.3579 3.68629L68.6716 15L57.3579 26.3137C56.5768 27.0948 56.5768 28.3611 57.3579 29.1421C58.1389 29.9232 59.4052 29.9232 60.1863 29.1421L72.9142 16.4142ZM2 17H71.5V13H2V17Z" fill="white"/>
</svg>
